<?xml version="1.0" encoding="UTF-8" standalone="no"?>
<!DOCTYPE svg PUBLIC "-//W3C//DTD SVG 1.1//EN"
 "http://www.w3.org/Graphics/SVG/1.1/DTD/svg11.dtd">
<!-- Generated by graphviz version 8.1.0 (20230707.0739)
 -->
<!-- Title: dependency&#45;cruiser output Pages: 1 -->
<svg width="481pt" height="240pt"
 viewBox="0.00 0.00 481.38 240.00" xmlns="http://www.w3.org/2000/svg" xmlns:xlink="http://www.w3.org/1999/xlink">
<g id="graph0" class="graph" transform="scale(1 1) rotate(0) translate(4 236)">
<title>dependency&#45;cruiser output</title>
<polygon fill="white" stroke="none" points="-4,4 -4,-236 477.38,-236 477.38,4 -4,4"/>
<g id="clust1" class="cluster">
<title>cluster_src</title>
<path fill="#ffffff" stroke="black" stroke-width="2" d="M20,-8C20,-8 453.38,-8 453.38,-8 459.38,-8 465.38,-14 465.38,-20 465.38,-20 465.38,-212 465.38,-212 465.38,-218 459.38,-224 453.38,-224 453.38,-224 20,-224 20,-224 14,-224 8,-218 8,-212 8,-212 8,-20 8,-20 8,-14 14,-8 20,-8"/>
<text text-anchor="middle" x="236.69" y="-211.45" font-family="Helvetica,sans-Serif" font-weight="bold" font-size="9.00">src</text>
</g>
<g id="clust2" class="cluster">
<title>cluster_src/entities</title>
<path fill="#ffffff" stroke="black" stroke-width="2" d="M188.75,-146C188.75,-146 354.62,-146 354.62,-146 360.62,-146 366.62,-152 366.62,-158 366.62,-158 366.62,-186 366.62,-186 366.62,-192 360.62,-198 354.62,-198 354.62,-198 188.75,-198 188.75,-198 182.75,-198 176.75,-192 176.75,-186 176.75,-186 176.75,-158 176.75,-158 176.75,-152 182.75,-146 188.75,-146"/>
<text text-anchor="middle" x="271.69" y="-185.45" font-family="Helvetica,sans-Serif" font-weight="bold" font-size="9.00">entities</text>
</g>
<g id="clust3" class="cluster">
<title>cluster_src/migrations</title>
<path fill="#ffffff" stroke="black" stroke-width="2" d="M28,-124C28,-124 156.75,-124 156.75,-124 162.75,-124 168.75,-130 168.75,-136 168.75,-136 168.75,-164 168.75,-164 168.75,-170 162.75,-176 156.75,-176 156.75,-176 28,-176 28,-176 22,-176 16,-170 16,-164 16,-164 16,-136 16,-136 16,-130 22,-124 28,-124"/>
<text text-anchor="middle" x="92.38" y="-163.45" font-family="Helvetica,sans-Serif" font-weight="bold" font-size="9.00">migrations</text>
</g>
<!-- src/commandHandler.ts -->
<g id="node1" class="node">
<title>src/commandHandler.ts</title>
<g id="a_node1"><a xlink:href="src/commandHandler.ts" xlink:title="commandHandler.ts">
<path fill="#ddfeff" stroke="black" d="M351.96,-107.88C351.96,-107.88 265.29,-107.88 265.29,-107.88 262.33,-107.88 259.38,-104.92 259.38,-101.96 259.38,-101.96 259.38,-96.04 259.38,-96.04 259.38,-93.08 262.33,-90.12 265.29,-90.12 265.29,-90.12 351.96,-90.12 351.96,-90.12 354.92,-90.12 357.88,-93.08 357.88,-96.04 357.88,-96.04 357.88,-101.96 357.88,-101.96 357.88,-104.92 354.92,-107.88 351.96,-107.88"/>
<text text-anchor="start" x="267.38" y="-95.33" font-family="Helvetica,sans-Serif" font-size="9.00">commandHandler.ts</text>
</a>
</g>
</g>
<!-- src/entry.ts -->
<g id="node2" class="node">
<title>src/entry.ts</title>
<g id="a_node2"><a xlink:href="src/entry.ts" xlink:title="entry.ts">
<path fill="#ddfeff" stroke="black" d="M437.08,-179.88C437.08,-179.88 394.92,-179.88 394.92,-179.88 391.96,-179.88 389,-176.92 389,-173.96 389,-173.96 389,-168.04 389,-168.04 389,-165.08 391.96,-162.12 394.92,-162.12 394.92,-162.12 437.08,-162.12 437.08,-162.12 440.04,-162.12 443,-165.08 443,-168.04 443,-168.04 443,-173.96 443,-173.96 443,-176.92 440.04,-179.88 437.08,-179.88"/>
<text text-anchor="start" x="401.38" y="-167.32" font-family="Helvetica,sans-Serif" font-size="9.00">entry.ts</text>
</a>
</g>
</g>
<!-- src/commandHandler.ts&#45;&gt;src/entry.ts -->
<g id="edge1" class="edge">
<title>src/commandHandler.ts&#45;&gt;src/entry.ts</title>
<path fill="none" stroke="#000000" stroke-width="2" stroke-opacity="0.200000" d="M358.27,-107.78C361.31,-109.51 364.14,-111.57 366.62,-114 375.87,-123.06 367.18,-131.41 374.62,-142 378.68,-147.76 384.24,-152.79 389.95,-156.97"/>
<polygon fill="#000000" fill-opacity="0.200000" stroke="#000000" stroke-width="2" stroke-opacity="0.200000" points="389,-159.21 395.15,-160.81 391.34,-155.72 389,-159.21"/>
</g>
<!-- src/eventChannel.ts -->
<g id="node3" class="node">
<title>src/eventChannel.ts</title>
<g id="a_node3"><a xlink:href="src/eventChannel.ts" xlink:title="eventChannel.ts">
<path fill="#ddfeff" stroke="black" d="M451.46,-63.88C451.46,-63.88 380.54,-63.88 380.54,-63.88 377.58,-63.88 374.62,-60.92 374.62,-57.96 374.62,-57.96 374.62,-52.04 374.62,-52.04 374.62,-49.08 377.58,-46.12 380.54,-46.12 380.54,-46.12 451.46,-46.12 451.46,-46.12 454.42,-46.12 457.38,-49.08 457.38,-52.04 457.38,-52.04 457.38,-57.96 457.38,-57.96 457.38,-60.92 454.42,-63.88 451.46,-63.88"/>
<text text-anchor="start" x="382.62" y="-51.33" font-family="Helvetica,sans-Serif" font-size="9.00">eventChannel.ts</text>
</a>
</g>
</g>
<!-- src/commandHandler.ts&#45;&gt;src/eventChannel.ts -->
<g id="edge2" class="edge">
<title>src/commandHandler.ts&#45;&gt;src/eventChannel.ts</title>
<path fill="none" stroke="#000000" stroke-width="2" stroke-opacity="0.200000" d="M331.97,-89.67C347.34,-83.25 367.93,-74.65 384.76,-67.63"/>
<polygon fill="#000000" fill-opacity="0.200000" stroke="#000000" stroke-width="2" stroke-opacity="0.200000" points="385.96,-69.57 390.68,-65.32 384.34,-65.69 385.96,-69.57"/>
</g>
<!-- src/uid.ts -->
<g id="node4" class="node">
<title>src/uid.ts</title>
<g id="a_node4"><a xlink:href="src/uid.ts" xlink:title="uid.ts">
<path fill="#ddfeff" stroke="black" d="M437.08,-135.88C437.08,-135.88 394.92,-135.88 394.92,-135.88 391.96,-135.88 389,-132.92 389,-129.96 389,-129.96 389,-124.04 389,-124.04 389,-121.08 391.96,-118.12 394.92,-118.12 394.92,-118.12 437.08,-118.12 437.08,-118.12 440.04,-118.12 443,-121.08 443,-124.04 443,-124.04 443,-129.96 443,-129.96 443,-132.92 440.04,-135.88 437.08,-135.88"/>
<text text-anchor="start" x="405.12" y="-123.33" font-family="Helvetica,sans-Serif" font-size="9.00">uid.ts</text>
</a>
</g>
</g>
<!-- src/commandHandler.ts&#45;&gt;src/uid.ts -->
<g id="edge3" class="edge">
<title>src/commandHandler.ts&#45;&gt;src/uid.ts</title>
<path fill="none" stroke="#000000" stroke-width="2" stroke-opacity="0.200000" d="M345.21,-108.33C352.3,-110.2 359.7,-112.16 366.62,-114 370.98,-115.16 375.55,-116.38 380.07,-117.59"/>
<polygon fill="#000000" fill-opacity="0.200000" stroke="#000000" stroke-width="2" stroke-opacity="0.200000" points="380.31,-120.36 386.64,-119.89 381.39,-116.31 380.31,-120.36"/>
</g>
<!-- src/db.ts -->
<g id="node5" class="node">
<title>src/db.ts</title>
<g id="a_node5"><a xlink:href="src/db.ts" xlink:title="db.ts">
<path fill="#ddfeff" stroke="black" d="M232.83,-137.88C232.83,-137.88 190.67,-137.88 190.67,-137.88 187.71,-137.88 184.75,-134.92 184.75,-131.96 184.75,-131.96 184.75,-126.04 184.75,-126.04 184.75,-123.08 187.71,-120.12 190.67,-120.12 190.67,-120.12 232.83,-120.12 232.83,-120.12 235.79,-120.12 238.75,-123.08 238.75,-126.04 238.75,-126.04 238.75,-131.96 238.75,-131.96 238.75,-134.92 235.79,-137.88 232.83,-137.88"/>
<text text-anchor="start" x="202" y="-125.33" font-family="Helvetica,sans-Serif" font-size="9.00">db.ts</text>
</a>
</g>
</g>
<!-- src/mikro&#45;orm.config.ts -->
<g id="node6" class="node">
<title>src/mikro&#45;orm.config.ts</title>
<g id="a_node6"><a xlink:href="src/mikro-orm.config.ts" xlink:title="mikro&#45;orm.config.ts">
<path fill="#ddfeff" stroke="black" d="M349.33,-137.88C349.33,-137.88 267.92,-137.88 267.92,-137.88 264.96,-137.88 262,-134.92 262,-131.96 262,-131.96 262,-126.04 262,-126.04 262,-123.08 264.96,-120.12 267.92,-120.12 267.92,-120.12 349.33,-120.12 349.33,-120.12 352.29,-120.12 355.25,-123.08 355.25,-126.04 355.25,-126.04 355.25,-131.96 355.25,-131.96 355.25,-134.92 352.29,-137.88 349.33,-137.88"/>
<text text-anchor="start" x="270" y="-125.33" font-family="Helvetica,sans-Serif" font-size="9.00">mikro&#45;orm.config.ts</text>
</a>
</g>
</g>
<!-- src/db.ts&#45;&gt;src/mikro&#45;orm.config.ts -->
<g id="edge4" class="edge">
<title>src/db.ts&#45;&gt;src/mikro&#45;orm.config.ts</title>
<path fill="none" stroke="#000000" stroke-width="2" stroke-opacity="0.200000" d="M239.18,-129C243.56,-129 248.25,-129 253.04,-129"/>
<polygon fill="#000000" fill-opacity="0.200000" stroke="#000000" stroke-width="2" stroke-opacity="0.200000" points="252.72,-131.1 258.72,-129 252.72,-126.9 252.72,-131.1"/>
</g>
<!-- src/dispatcher.ts -->
<g id="node7" class="node">
<title>src/dispatcher.ts</title>
<g id="a_node7"><a xlink:href="src/dispatcher.ts" xlink:title="dispatcher.ts">
<path fill="#ddfeff" stroke="black" d="M239.71,-33.88C239.71,-33.88 183.79,-33.88 183.79,-33.88 180.83,-33.88 177.88,-30.92 177.88,-27.96 177.88,-27.96 177.88,-22.04 177.88,-22.04 177.88,-19.08 180.83,-16.12 183.79,-16.12 183.79,-16.12 239.71,-16.12 239.71,-16.12 242.67,-16.12 245.62,-19.08 245.62,-22.04 245.62,-22.04 245.62,-27.96 245.62,-27.96 245.62,-30.92 242.67,-33.88 239.71,-33.88"/>
<text text-anchor="start" x="185.88" y="-21.32" font-family="Helvetica,sans-Serif" font-size="9.00">dispatcher.ts</text>
</a>
</g>
</g>
<!-- src/dispatcher.ts&#45;&gt;src/eventChannel.ts -->
<g id="edge5" class="edge">
<title>src/dispatcher.ts&#45;&gt;src/eventChannel.ts</title>
<path fill="none" stroke="#000000" stroke-width="2" stroke-opacity="0.200000" d="M245.7,-29.89C278.23,-34.71 328.4,-42.15 365.69,-47.69"/>
<polygon fill="#000000" fill-opacity="0.200000" stroke="#000000" stroke-width="2" stroke-opacity="0.200000" points="366.15,-50.17 372.39,-48.98 366.77,-46.02 366.15,-50.17"/>
</g>
<!-- src/entities/CustomBaseEntity.ts -->
<g id="node8" class="node">
<title>src/entities/CustomBaseEntity.ts</title>
<g id="a_node8"><a xlink:href="src/entities/CustomBaseEntity.ts" xlink:title="CustomBaseEntity.ts">
<path fill="#ddfeff" stroke="black" d="M352.71,-171.88C352.71,-171.88 264.54,-171.88 264.54,-171.88 261.58,-171.88 258.62,-168.92 258.62,-165.96 258.62,-165.96 258.62,-160.04 258.62,-160.04 258.62,-157.08 261.58,-154.12 264.54,-154.12 264.54,-154.12 352.71,-154.12 352.71,-154.12 355.67,-154.12 358.62,-157.08 358.62,-160.04 358.62,-160.04 358.62,-165.96 358.62,-165.96 358.62,-168.92 355.67,-171.88 352.71,-171.88"/>
<text text-anchor="start" x="266.62" y="-159.32" font-family="Helvetica,sans-Serif" font-size="9.00">CustomBaseEntity.ts</text>
</a>
</g>
</g>
<!-- src/entities/CustomBaseEntity.ts&#45;&gt;src/uid.ts -->
<g id="edge6" class="edge">
<title>src/entities/CustomBaseEntity.ts&#45;&gt;src/uid.ts</title>
<path fill="none" stroke="#000000" stroke-width="2" stroke-opacity="0.200000" d="M354.69,-153.7C358.76,-152.56 362.79,-151.33 366.62,-150 374.5,-147.27 382.78,-143.63 390.23,-140.06"/>
<polygon fill="#000000" fill-opacity="0.200000" stroke="#000000" stroke-width="2" stroke-opacity="0.200000" points="391.48,-141.79 395.92,-137.25 389.61,-138.03 391.48,-141.79"/>
</g>
<!-- src/entities/Entry.ts -->
<g id="node9" class="node">
<title>src/entities/Entry.ts</title>
<g id="a_node9"><a xlink:href="src/entities/Entry.ts" xlink:title="Entry.ts">
<path fill="#ddfeff" stroke="black" d="M232.83,-171.88C232.83,-171.88 190.67,-171.88 190.67,-171.88 187.71,-171.88 184.75,-168.92 184.75,-165.96 184.75,-165.96 184.75,-160.04 184.75,-160.04 184.75,-157.08 187.71,-154.12 190.67,-154.12 190.67,-154.12 232.83,-154.12 232.83,-154.12 235.79,-154.12 238.75,-157.08 238.75,-160.04 238.75,-160.04 238.75,-165.96 238.75,-165.96 238.75,-168.92 235.79,-171.88 232.83,-171.88"/>
<text text-anchor="start" x="196.75" y="-159.32" font-family="Helvetica,sans-Serif" font-size="9.00">Entry.ts</text>
</a>
</g>
</g>
<!-- src/entities/Entry.ts&#45;&gt;src/entry.ts -->
<g id="edge7" class="edge">
<title>src/entities/Entry.ts&#45;&gt;src/entry.ts</title>
<path fill="none" stroke="#000000" stroke-width="2" stroke-opacity="0.200000" d="M236.21,-172.24C243.3,-174.61 251.18,-176.81 258.62,-178 299.96,-184.59 348.16,-180.71 380,-176.58"/>
<polygon fill="#000000" fill-opacity="0.200000" stroke="#000000" stroke-width="2" stroke-opacity="0.200000" points="380.87,-178.31 386.53,-175.42 380.3,-174.15 380.87,-178.31"/>
</g>
<!-- src/entities/Entry.ts&#45;&gt;src/entities/CustomBaseEntity.ts -->
<g id="edge8" class="edge">
<title>src/entities/Entry.ts&#45;&gt;src/entities/CustomBaseEntity.ts</title>
<path fill="none" stroke="#000000" stroke-width="2" stroke-opacity="0.200000" d="M239.18,-163C242.48,-163 245.94,-163 249.5,-163"/>
<polygon fill="#000000" fill-opacity="0.200000" stroke="#000000" stroke-width="2" stroke-opacity="0.200000" points="249.45,-165.1 255.45,-163 249.45,-160.9 249.45,-165.1"/>
</g>
<!-- src/index.ts -->
<g id="node10" class="node">
<title>src/index.ts</title>
<g id="a_node10"><a xlink:href="src/index.ts" xlink:title="index.ts">
<path fill="#ddfeff" stroke="black" d="M113.46,-93.88C113.46,-93.88 71.29,-93.88 71.29,-93.88 68.33,-93.88 65.38,-90.92 65.38,-87.96 65.38,-87.96 65.38,-82.04 65.38,-82.04 65.38,-79.08 68.33,-76.12 71.29,-76.12 71.29,-76.12 113.46,-76.12 113.46,-76.12 116.42,-76.12 119.38,-79.08 119.38,-82.04 119.38,-82.04 119.38,-87.96 119.38,-87.96 119.38,-90.92 116.42,-93.88 113.46,-93.88"/>
<text text-anchor="start" x="76.62" y="-81.33" font-family="Helvetica,sans-Serif" font-size="9.00">index.ts</text>
</a>
</g>
</g>
<!-- src/index.ts&#45;&gt;src/commandHandler.ts -->
<g id="edge9" class="edge">
<title>src/index.ts&#45;&gt;src/commandHandler.ts</title>
<path fill="none" stroke="#000000" stroke-width="2" stroke-opacity="0.200000" d="M119.87,-91.01C136.18,-94.4 157.56,-98.29 176.75,-100 207.24,-102.72 215.01,-100.25 245.62,-100 247.11,-99.99 248.61,-99.97 250.12,-99.96"/>
<polygon fill="#000000" fill-opacity="0.200000" stroke="#000000" stroke-width="2" stroke-opacity="0.200000" points="249.91,-102.03 255.89,-99.86 249.87,-97.83 249.91,-102.03"/>
</g>
<!-- src/index.ts&#45;&gt;src/db.ts -->
<g id="edge10" class="edge">
<title>src/index.ts&#45;&gt;src/db.ts</title>
<path fill="none" stroke="#000000" stroke-width="2" stroke-opacity="0.200000" d="M118.27,-94.33C135.54,-100.81 158.74,-109.5 177.58,-116.57"/>
<polygon fill="#000000" fill-opacity="0.200000" stroke="#000000" stroke-width="2" stroke-opacity="0.200000" points="177.54,-118.54 183.89,-118.68 179.01,-114.61 177.54,-118.54"/>
</g>
<!-- src/index.ts&#45;&gt;src/dispatcher.ts -->
<g id="edge11" class="edge">
<title>src/index.ts&#45;&gt;src/dispatcher.ts</title>
<path fill="none" stroke="#000000" stroke-width="2" stroke-opacity="0.200000" d="M109.78,-75.64C126.45,-66.26 153.11,-51.57 176.75,-40 178.1,-39.34 179.5,-38.67 180.9,-38.01"/>
<polygon fill="#000000" fill-opacity="0.200000" stroke="#000000" stroke-width="2" stroke-opacity="0.200000" points="182.47,-39.68 187.05,-35.27 180.72,-35.86 182.47,-39.68"/>
</g>
<!-- src/main.tsx -->
<g id="node11" class="node">
<title>src/main.tsx</title>
<g id="a_node11"><a xlink:href="src/main.tsx" xlink:title="main.tsx">
<path fill="#bbfeff" stroke="black" d="M232.83,-63.88C232.83,-63.88 190.67,-63.88 190.67,-63.88 187.71,-63.88 184.75,-60.92 184.75,-57.96 184.75,-57.96 184.75,-52.04 184.75,-52.04 184.75,-49.08 187.71,-46.12 190.67,-46.12 190.67,-46.12 232.83,-46.12 232.83,-46.12 235.79,-46.12 238.75,-49.08 238.75,-52.04 238.75,-52.04 238.75,-57.96 238.75,-57.96 238.75,-60.92 235.79,-63.88 232.83,-63.88"/>
<text text-anchor="start" x="194.88" y="-51.33" font-family="Helvetica,sans-Serif" font-size="9.00">main.tsx</text>
</a>
</g>
</g>
<!-- src/index.ts&#45;&gt;src/main.tsx -->
<g id="edge12" class="edge">
<title>src/index.ts&#45;&gt;src/main.tsx</title>
<path fill="none" stroke="#000000" stroke-width="2" stroke-opacity="0.200000" d="M119.72,-78.27C136.33,-74.02 157.97,-68.49 175.98,-63.89"/>
<polygon fill="#000000" fill-opacity="0.200000" stroke="#000000" stroke-width="2" stroke-opacity="0.200000" points="177.2,-65.23 182.5,-61.71 176.16,-61.16 177.2,-65.23"/>
</g>
<!-- src/parser.ts -->
<g id="node12" class="node">
<title>src/parser.ts</title>
<g id="a_node12"><a xlink:href="src/parser.ts" xlink:title="parser.ts">
<path fill="#ddfeff" stroke="black" d="M232.83,-93.88C232.83,-93.88 190.67,-93.88 190.67,-93.88 187.71,-93.88 184.75,-90.92 184.75,-87.96 184.75,-87.96 184.75,-82.04 184.75,-82.04 184.75,-79.08 187.71,-76.12 190.67,-76.12 190.67,-76.12 232.83,-76.12 232.83,-76.12 235.79,-76.12 238.75,-79.08 238.75,-82.04 238.75,-82.04 238.75,-87.96 238.75,-87.96 238.75,-90.92 235.79,-93.88 232.83,-93.88"/>
<text text-anchor="start" x="194.12" y="-81.33" font-family="Helvetica,sans-Serif" font-size="9.00">parser.ts</text>
</a>
</g>
</g>
<!-- src/index.ts&#45;&gt;src/parser.ts -->
<g id="edge13" class="edge">
<title>src/index.ts&#45;&gt;src/parser.ts</title>
<path fill="none" stroke="#000000" stroke-width="2" stroke-opacity="0.200000" d="M119.72,-85C136.33,-85 157.97,-85 175.98,-85"/>
<polygon fill="#000000" fill-opacity="0.200000" stroke="#000000" stroke-width="2" stroke-opacity="0.200000" points="175.5,-87.1 181.5,-85 175.5,-82.9 175.5,-87.1"/>
</g>
<!-- src/main.tsx&#45;&gt;src/eventChannel.ts -->
<g id="edge14" class="edge">
<title>src/main.tsx&#45;&gt;src/eventChannel.ts</title>
<path fill="none" stroke="#000000" stroke-width="2" stroke-opacity="0.200000" d="M239.19,-55C271.14,-55 325.58,-55 365.43,-55"/>
<polygon fill="#000000" fill-opacity="0.200000" stroke="#000000" stroke-width="2" stroke-opacity="0.200000" points="365.2,-57.1 371.2,-55 365.2,-52.9 365.2,-57.1"/>
</g>
<!-- src/parser.ts&#45;&gt;src/commandHandler.ts -->
<g id="edge15" class="edge">
<title>src/parser.ts&#45;&gt;src/commandHandler.ts</title>
<path fill="none" stroke="#000000" stroke-width="2" stroke-opacity="0.200000" d="M239.18,-88.9C242.79,-89.43 246.61,-90 250.52,-90.57"/>
<polygon fill="#000000" fill-opacity="0.200000" stroke="#000000" stroke-width="2" stroke-opacity="0.200000" points="250.94,-93.05 257.18,-91.85 251.55,-88.9 250.94,-93.05"/>
</g>
<!-- src/migrations/Migration20230902060841.ts -->
<g id="node13" class="node">
<title>src/migrations/Migration20230902060841.ts</title>
<g id="a_node13"><a xlink:href="src/migrations/Migration20230902060841.ts" xlink:title="Migration20230902060841.ts">
<path fill="#ccffcc" stroke="black" d="M154.83,-149.88C154.83,-149.88 29.92,-149.88 29.92,-149.88 26.96,-149.88 24,-146.92 24,-143.96 24,-143.96 24,-138.04 24,-138.04 24,-135.08 26.96,-132.12 29.92,-132.12 29.92,-132.12 154.83,-132.12 154.83,-132.12 157.79,-132.12 160.75,-135.08 160.75,-138.04 160.75,-138.04 160.75,-143.96 160.75,-143.96 160.75,-146.92 157.79,-149.88 154.83,-149.88"/>
<text text-anchor="start" x="32" y="-137.32" font-family="Helvetica,sans-Serif" font-size="9.00">Migration20230902060841.ts</text>
</a>
</g>
</g>
</g>
</svg>
