<?xml version="1.0" encoding="UTF-8" standalone="no"?>
<!DOCTYPE svg PUBLIC "-//W3C//DTD SVG 1.1//EN"
 "http://www.w3.org/Graphics/SVG/1.1/DTD/svg11.dtd">
<!-- Generated by graphviz version 8.1.0 (20230707.0739)
 -->
<!-- Title: dependency&#45;cruiser output Pages: 1 -->
<svg width="387pt" height="240pt"
 viewBox="0.00 0.00 386.50 240.00" xmlns="http://www.w3.org/2000/svg" xmlns:xlink="http://www.w3.org/1999/xlink">
<g id="graph0" class="graph" transform="scale(1 1) rotate(0) translate(4 236)">
<title>dependency&#45;cruiser output</title>
<polygon fill="white" stroke="none" points="-4,4 -4,-236 382.5,-236 382.5,4 -4,4"/>
<g id="clust1" class="cluster">
<title>cluster_src</title>
<path fill="#ffffff" stroke="black" stroke-width="2" d="M20,-8C20,-8 358.5,-8 358.5,-8 364.5,-8 370.5,-14 370.5,-20 370.5,-20 370.5,-212 370.5,-212 370.5,-218 364.5,-224 358.5,-224 358.5,-224 20,-224 20,-224 14,-224 8,-218 8,-212 8,-212 8,-20 8,-20 8,-14 14,-8 20,-8"/>
<text text-anchor="middle" x="189.25" y="-211.45" font-family="Helvetica,sans-Serif" font-weight="bold" font-size="9.00">src</text>
</g>
<g id="clust2" class="cluster">
<title>cluster_src/entities</title>
<path fill="#ffffff" stroke="black" stroke-width="2" d="M93.88,-146C93.88,-146 259.75,-146 259.75,-146 265.75,-146 271.75,-152 271.75,-158 271.75,-158 271.75,-186 271.75,-186 271.75,-192 265.75,-198 259.75,-198 259.75,-198 93.87,-198 93.87,-198 87.88,-198 81.88,-192 81.88,-186 81.88,-186 81.88,-158 81.88,-158 81.88,-152 87.88,-146 93.88,-146"/>
<text text-anchor="middle" x="176.81" y="-185.45" font-family="Helvetica,sans-Serif" font-weight="bold" font-size="9.00">entities</text>
</g>
<!-- src/commandHandler.ts -->
<g id="node1" class="node">
<title>src/commandHandler.ts</title>
<g id="a_node1"><a xlink:href="src/commandHandler.ts" xlink:title="commandHandler.ts">
<path fill="#ddfeff" stroke="black" d="M257.08,-107.88C257.08,-107.88 170.42,-107.88 170.42,-107.88 167.46,-107.88 164.5,-104.92 164.5,-101.96 164.5,-101.96 164.5,-96.04 164.5,-96.04 164.5,-93.08 167.46,-90.12 170.42,-90.12 170.42,-90.12 257.08,-90.12 257.08,-90.12 260.04,-90.12 263,-93.08 263,-96.04 263,-96.04 263,-101.96 263,-101.96 263,-104.92 260.04,-107.88 257.08,-107.88"/>
<text text-anchor="start" x="172.5" y="-95.33" font-family="Helvetica,sans-Serif" font-size="9.00">commandHandler.ts</text>
</a>
</g>
</g>
<!-- src/entry.ts -->
<g id="node2" class="node">
<title>src/entry.ts</title>
<g id="a_node2"><a xlink:href="src/entry.ts" xlink:title="entry.ts">
<path fill="#ddfeff" stroke="black" d="M342.21,-179.88C342.21,-179.88 300.04,-179.88 300.04,-179.88 297.08,-179.88 294.12,-176.92 294.12,-173.96 294.12,-173.96 294.12,-168.04 294.12,-168.04 294.12,-165.08 297.08,-162.12 300.04,-162.12 300.04,-162.12 342.21,-162.12 342.21,-162.12 345.17,-162.12 348.12,-165.08 348.12,-168.04 348.12,-168.04 348.12,-173.96 348.12,-173.96 348.12,-176.92 345.17,-179.88 342.21,-179.88"/>
<text text-anchor="start" x="306.5" y="-167.32" font-family="Helvetica,sans-Serif" font-size="9.00">entry.ts</text>
</a>
</g>
</g>
<!-- src/commandHandler.ts&#45;&gt;src/entry.ts -->
<g id="edge1" class="edge">
<title>src/commandHandler.ts&#45;&gt;src/entry.ts</title>
<path fill="none" stroke="#000000" stroke-width="2" stroke-opacity="0.200000" d="M263.39,-107.78C266.43,-109.51 269.26,-111.57 271.75,-114 281,-123.06 272.3,-131.41 279.75,-142 283.8,-147.76 289.37,-152.79 295.08,-156.97"/>
<polygon fill="#000000" fill-opacity="0.200000" stroke="#000000" stroke-width="2" stroke-opacity="0.200000" points="294.12,-159.21 300.28,-160.81 296.47,-155.72 294.12,-159.21"/>
</g>
<!-- src/eventChannel.ts -->
<g id="node3" class="node">
<title>src/eventChannel.ts</title>
<g id="a_node3"><a xlink:href="src/eventChannel.ts" xlink:title="eventChannel.ts">
<path fill="#ddfeff" stroke="black" d="M356.58,-63.88C356.58,-63.88 285.67,-63.88 285.67,-63.88 282.71,-63.88 279.75,-60.92 279.75,-57.96 279.75,-57.96 279.75,-52.04 279.75,-52.04 279.75,-49.08 282.71,-46.12 285.67,-46.12 285.67,-46.12 356.58,-46.12 356.58,-46.12 359.54,-46.12 362.5,-49.08 362.5,-52.04 362.5,-52.04 362.5,-57.96 362.5,-57.96 362.5,-60.92 359.54,-63.88 356.58,-63.88"/>
<text text-anchor="start" x="287.75" y="-51.33" font-family="Helvetica,sans-Serif" font-size="9.00">eventChannel.ts</text>
</a>
</g>
</g>
<!-- src/commandHandler.ts&#45;&gt;src/eventChannel.ts -->
<g id="edge2" class="edge">
<title>src/commandHandler.ts&#45;&gt;src/eventChannel.ts</title>
<path fill="none" stroke="#000000" stroke-width="2" stroke-opacity="0.200000" d="M237.1,-89.67C252.47,-83.25 273.06,-74.65 289.89,-67.63"/>
<polygon fill="#000000" fill-opacity="0.200000" stroke="#000000" stroke-width="2" stroke-opacity="0.200000" points="291.08,-69.57 295.81,-65.32 289.46,-65.69 291.08,-69.57"/>
</g>
<!-- src/uid.ts -->
<g id="node4" class="node">
<title>src/uid.ts</title>
<g id="a_node4"><a xlink:href="src/uid.ts" xlink:title="uid.ts">
<path fill="#ddfeff" stroke="black" d="M342.21,-135.88C342.21,-135.88 300.04,-135.88 300.04,-135.88 297.08,-135.88 294.12,-132.92 294.12,-129.96 294.12,-129.96 294.12,-124.04 294.12,-124.04 294.12,-121.08 297.08,-118.12 300.04,-118.12 300.04,-118.12 342.21,-118.12 342.21,-118.12 345.17,-118.12 348.12,-121.08 348.12,-124.04 348.12,-124.04 348.12,-129.96 348.12,-129.96 348.12,-132.92 345.17,-135.88 342.21,-135.88"/>
<text text-anchor="start" x="310.25" y="-123.33" font-family="Helvetica,sans-Serif" font-size="9.00">uid.ts</text>
</a>
</g>
</g>
<!-- src/commandHandler.ts&#45;&gt;src/uid.ts -->
<g id="edge3" class="edge">
<title>src/commandHandler.ts&#45;&gt;src/uid.ts</title>
<path fill="none" stroke="#000000" stroke-width="2" stroke-opacity="0.200000" d="M250.33,-108.33C257.43,-110.2 264.83,-112.16 271.75,-114 276.1,-115.16 280.68,-116.38 285.2,-117.59"/>
<polygon fill="#000000" fill-opacity="0.200000" stroke="#000000" stroke-width="2" stroke-opacity="0.200000" points="285.43,-120.36 291.77,-119.89 286.52,-116.31 285.43,-120.36"/>
</g>
<!-- src/db.ts -->
<g id="node5" class="node">
<title>src/db.ts</title>
<g id="a_node5"><a xlink:href="src/db.ts" xlink:title="db.ts">
<path fill="#ddfeff" stroke="black" d="M137.96,-137.88C137.96,-137.88 95.79,-137.88 95.79,-137.88 92.83,-137.88 89.88,-134.92 89.88,-131.96 89.88,-131.96 89.88,-126.04 89.88,-126.04 89.88,-123.08 92.83,-120.12 95.79,-120.12 95.79,-120.12 137.96,-120.12 137.96,-120.12 140.92,-120.12 143.88,-123.08 143.88,-126.04 143.88,-126.04 143.88,-131.96 143.88,-131.96 143.88,-134.92 140.92,-137.88 137.96,-137.88"/>
<text text-anchor="start" x="107.12" y="-125.33" font-family="Helvetica,sans-Serif" font-size="9.00">db.ts</text>
</a>
</g>
</g>
<!-- src/mikro&#45;orm.config.ts -->
<g id="node6" class="node">
<title>src/mikro&#45;orm.config.ts</title>
<g id="a_node6"><a xlink:href="src/mikro-orm.config.ts" xlink:title="mikro&#45;orm.config.ts">
<path fill="#ddfeff" stroke="black" d="M254.46,-137.88C254.46,-137.88 173.04,-137.88 173.04,-137.88 170.08,-137.88 167.12,-134.92 167.12,-131.96 167.12,-131.96 167.12,-126.04 167.12,-126.04 167.12,-123.08 170.08,-120.12 173.04,-120.12 173.04,-120.12 254.46,-120.12 254.46,-120.12 257.42,-120.12 260.38,-123.08 260.38,-126.04 260.38,-126.04 260.38,-131.96 260.38,-131.96 260.38,-134.92 257.42,-137.88 254.46,-137.88"/>
<text text-anchor="start" x="175.12" y="-125.33" font-family="Helvetica,sans-Serif" font-size="9.00">mikro&#45;orm.config.ts</text>
</a>
</g>
</g>
<!-- src/db.ts&#45;&gt;src/mikro&#45;orm.config.ts -->
<g id="edge4" class="edge">
<title>src/db.ts&#45;&gt;src/mikro&#45;orm.config.ts</title>
<path fill="none" stroke="#000000" stroke-width="2" stroke-opacity="0.200000" d="M144.3,-129C148.69,-129 153.38,-129 158.16,-129"/>
<polygon fill="#000000" fill-opacity="0.200000" stroke="#000000" stroke-width="2" stroke-opacity="0.200000" points="157.84,-131.1 163.84,-129 157.84,-126.9 157.84,-131.1"/>
</g>
<!-- src/dispatcher.ts -->
<g id="node7" class="node">
<title>src/dispatcher.ts</title>
<g id="a_node7"><a xlink:href="src/dispatcher.ts" xlink:title="dispatcher.ts">
<path fill="#ddfeff" stroke="black" d="M144.83,-33.88C144.83,-33.88 88.92,-33.88 88.92,-33.88 85.96,-33.88 83,-30.92 83,-27.96 83,-27.96 83,-22.04 83,-22.04 83,-19.08 85.96,-16.12 88.92,-16.12 88.92,-16.12 144.83,-16.12 144.83,-16.12 147.79,-16.12 150.75,-19.08 150.75,-22.04 150.75,-22.04 150.75,-27.96 150.75,-27.96 150.75,-30.92 147.79,-33.88 144.83,-33.88"/>
<text text-anchor="start" x="91" y="-21.32" font-family="Helvetica,sans-Serif" font-size="9.00">dispatcher.ts</text>
</a>
</g>
</g>
<!-- src/dispatcher.ts&#45;&gt;src/eventChannel.ts -->
<g id="edge5" class="edge">
<title>src/dispatcher.ts&#45;&gt;src/eventChannel.ts</title>
<path fill="none" stroke="#000000" stroke-width="2" stroke-opacity="0.200000" d="M150.82,-29.89C183.36,-34.71 233.53,-42.15 270.81,-47.69"/>
<polygon fill="#000000" fill-opacity="0.200000" stroke="#000000" stroke-width="2" stroke-opacity="0.200000" points="271.27,-50.17 277.52,-48.98 271.89,-46.02 271.27,-50.17"/>
</g>
<!-- src/entities/CustomBaseEntity.ts -->
<g id="node8" class="node">
<title>src/entities/CustomBaseEntity.ts</title>
<g id="a_node8"><a xlink:href="src/entities/CustomBaseEntity.ts" xlink:title="CustomBaseEntity.ts">
<path fill="#ddfeff" stroke="black" d="M257.83,-171.88C257.83,-171.88 169.67,-171.88 169.67,-171.88 166.71,-171.88 163.75,-168.92 163.75,-165.96 163.75,-165.96 163.75,-160.04 163.75,-160.04 163.75,-157.08 166.71,-154.12 169.67,-154.12 169.67,-154.12 257.83,-154.12 257.83,-154.12 260.79,-154.12 263.75,-157.08 263.75,-160.04 263.75,-160.04 263.75,-165.96 263.75,-165.96 263.75,-168.92 260.79,-171.88 257.83,-171.88"/>
<text text-anchor="start" x="171.75" y="-159.32" font-family="Helvetica,sans-Serif" font-size="9.00">CustomBaseEntity.ts</text>
</a>
</g>
</g>
<!-- src/entities/CustomBaseEntity.ts&#45;&gt;src/uid.ts -->
<g id="edge6" class="edge">
<title>src/entities/CustomBaseEntity.ts&#45;&gt;src/uid.ts</title>
<path fill="none" stroke="#000000" stroke-width="2" stroke-opacity="0.200000" d="M259.82,-153.7C263.89,-152.56 267.91,-151.33 271.75,-150 279.62,-147.27 287.91,-143.63 295.36,-140.06"/>
<polygon fill="#000000" fill-opacity="0.200000" stroke="#000000" stroke-width="2" stroke-opacity="0.200000" points="296.6,-141.79 301.05,-137.25 294.74,-138.03 296.6,-141.79"/>
</g>
<!-- src/entities/Entry.ts -->
<g id="node9" class="node">
<title>src/entities/Entry.ts</title>
<g id="a_node9"><a xlink:href="src/entities/Entry.ts" xlink:title="Entry.ts">
<path fill="#ddfeff" stroke="black" d="M137.96,-171.88C137.96,-171.88 95.79,-171.88 95.79,-171.88 92.83,-171.88 89.88,-168.92 89.88,-165.96 89.88,-165.96 89.88,-160.04 89.88,-160.04 89.88,-157.08 92.83,-154.12 95.79,-154.12 95.79,-154.12 137.96,-154.12 137.96,-154.12 140.92,-154.12 143.88,-157.08 143.88,-160.04 143.88,-160.04 143.88,-165.96 143.88,-165.96 143.88,-168.92 140.92,-171.88 137.96,-171.88"/>
<text text-anchor="start" x="101.88" y="-159.32" font-family="Helvetica,sans-Serif" font-size="9.00">Entry.ts</text>
</a>
</g>
</g>
<!-- src/entities/Entry.ts&#45;&gt;src/entry.ts -->
<g id="edge7" class="edge">
<title>src/entities/Entry.ts&#45;&gt;src/entry.ts</title>
<path fill="none" stroke="#000000" stroke-width="2" stroke-opacity="0.200000" d="M141.33,-172.24C148.42,-174.61 156.3,-176.81 163.75,-178 205.08,-184.59 253.28,-180.71 285.13,-176.58"/>
<polygon fill="#000000" fill-opacity="0.200000" stroke="#000000" stroke-width="2" stroke-opacity="0.200000" points="286,-178.31 291.66,-175.42 285.43,-174.15 286,-178.31"/>
</g>
<!-- src/entities/Entry.ts&#45;&gt;src/entities/CustomBaseEntity.ts -->
<g id="edge8" class="edge">
<title>src/entities/Entry.ts&#45;&gt;src/entities/CustomBaseEntity.ts</title>
<path fill="none" stroke="#000000" stroke-width="2" stroke-opacity="0.200000" d="M144.3,-163C147.6,-163 151.07,-163 154.62,-163"/>
<polygon fill="#000000" fill-opacity="0.200000" stroke="#000000" stroke-width="2" stroke-opacity="0.200000" points="154.58,-165.1 160.58,-163 154.58,-160.9 154.58,-165.1"/>
</g>
<!-- src/index.ts -->
<g id="node10" class="node">
<title>src/index.ts</title>
<g id="a_node10"><a xlink:href="src/index.ts" xlink:title="index.ts">
<path fill="#ddfeff" stroke="black" d="M64.08,-93.88C64.08,-93.88 21.92,-93.88 21.92,-93.88 18.96,-93.88 16,-90.92 16,-87.96 16,-87.96 16,-82.04 16,-82.04 16,-79.08 18.96,-76.12 21.92,-76.12 21.92,-76.12 64.08,-76.12 64.08,-76.12 67.04,-76.12 70,-79.08 70,-82.04 70,-82.04 70,-87.96 70,-87.96 70,-90.92 67.04,-93.88 64.08,-93.88"/>
<text text-anchor="start" x="27.25" y="-81.33" font-family="Helvetica,sans-Serif" font-size="9.00">index.ts</text>
</a>
</g>
</g>
<!-- src/index.ts&#45;&gt;src/commandHandler.ts -->
<g id="edge9" class="edge">
<title>src/index.ts&#45;&gt;src/commandHandler.ts</title>
<path fill="none" stroke="#000000" stroke-width="2" stroke-opacity="0.200000" d="M63.24,-94.24C69.09,-96.6 75.62,-98.81 81.88,-100 105.62,-104.53 132.23,-105.12 155.22,-104.27"/>
<polygon fill="#000000" fill-opacity="0.200000" stroke="#000000" stroke-width="2" stroke-opacity="0.200000" points="155.27,-106.23 161.17,-103.86 155.08,-102.03 155.27,-106.23"/>
</g>
<!-- src/index.ts&#45;&gt;src/db.ts -->
<g id="edge10" class="edge">
<title>src/index.ts&#45;&gt;src/db.ts</title>
<path fill="none" stroke="#000000" stroke-width="2" stroke-opacity="0.200000" d="M56.73,-94.28C63.97,-99.42 73.28,-105.8 81.88,-111 84.33,-112.49 86.92,-113.98 89.53,-115.44"/>
<polygon fill="#000000" fill-opacity="0.200000" stroke="#000000" stroke-width="2" stroke-opacity="0.200000" points="89.03,-117.65 95.31,-118.66 91.04,-113.95 89.03,-117.65"/>
</g>
<!-- src/index.ts&#45;&gt;src/dispatcher.ts -->
<g id="edge11" class="edge">
<title>src/index.ts&#45;&gt;src/dispatcher.ts</title>
<path fill="none" stroke="#000000" stroke-width="2" stroke-opacity="0.200000" d="M49.97,-75.63C56.7,-65.69 68.48,-50.05 81.88,-40 82.51,-39.53 83.16,-39.06 83.82,-38.61"/>
<polygon fill="#000000" fill-opacity="0.200000" stroke="#000000" stroke-width="2" stroke-opacity="0.200000" points="85.23,-40.04 89.34,-35.19 83.1,-36.42 85.23,-40.04"/>
</g>
<!-- src/main.tsx -->
<g id="node11" class="node">
<title>src/main.tsx</title>
<g id="a_node11"><a xlink:href="src/main.tsx" xlink:title="main.tsx">
<path fill="#bbfeff" stroke="black" d="M137.96,-63.88C137.96,-63.88 95.79,-63.88 95.79,-63.88 92.83,-63.88 89.88,-60.92 89.88,-57.96 89.88,-57.96 89.88,-52.04 89.88,-52.04 89.88,-49.08 92.83,-46.12 95.79,-46.12 95.79,-46.12 137.96,-46.12 137.96,-46.12 140.92,-46.12 143.88,-49.08 143.88,-52.04 143.88,-52.04 143.88,-57.96 143.88,-57.96 143.88,-60.92 140.92,-63.88 137.96,-63.88"/>
<text text-anchor="start" x="100" y="-51.33" font-family="Helvetica,sans-Serif" font-size="9.00">main.tsx</text>
</a>
</g>
</g>
<!-- src/index.ts&#45;&gt;src/main.tsx -->
<g id="edge12" class="edge">
<title>src/index.ts&#45;&gt;src/main.tsx</title>
<path fill="none" stroke="#000000" stroke-width="2" stroke-opacity="0.200000" d="M66.35,-75.67C72.49,-73.11 79.25,-70.29 85.76,-67.57"/>
<polygon fill="#000000" fill-opacity="0.200000" stroke="#000000" stroke-width="2" stroke-opacity="0.200000" points="87.06,-69.47 91.79,-65.22 85.44,-65.59 87.06,-69.47"/>
</g>
<!-- src/parser.ts -->
<g id="node12" class="node">
<title>src/parser.ts</title>
<g id="a_node12"><a xlink:href="src/parser.ts" xlink:title="parser.ts">
<path fill="#ddfeff" stroke="black" d="M137.96,-93.88C137.96,-93.88 95.79,-93.88 95.79,-93.88 92.83,-93.88 89.88,-90.92 89.88,-87.96 89.88,-87.96 89.88,-82.04 89.88,-82.04 89.88,-79.08 92.83,-76.12 95.79,-76.12 95.79,-76.12 137.96,-76.12 137.96,-76.12 140.92,-76.12 143.88,-79.08 143.88,-82.04 143.88,-82.04 143.88,-87.96 143.88,-87.96 143.88,-90.92 140.92,-93.88 137.96,-93.88"/>
<text text-anchor="start" x="99.25" y="-81.33" font-family="Helvetica,sans-Serif" font-size="9.00">parser.ts</text>
</a>
</g>
</g>
<!-- src/index.ts&#45;&gt;src/parser.ts -->
<g id="edge13" class="edge">
<title>src/index.ts&#45;&gt;src/parser.ts</title>
<path fill="none" stroke="#000000" stroke-width="2" stroke-opacity="0.200000" d="M70.36,-85C73.68,-85 77.11,-85 80.54,-85"/>
<polygon fill="#000000" fill-opacity="0.200000" stroke="#000000" stroke-width="2" stroke-opacity="0.200000" points="80.52,-87.1 86.52,-85 80.52,-82.9 80.52,-87.1"/>
</g>
<!-- src/main.tsx&#45;&gt;src/eventChannel.ts -->
<g id="edge14" class="edge">
<title>src/main.tsx&#45;&gt;src/eventChannel.ts</title>
<path fill="none" stroke="#000000" stroke-width="2" stroke-opacity="0.200000" d="M144.32,-55C176.27,-55 230.7,-55 270.55,-55"/>
<polygon fill="#000000" fill-opacity="0.200000" stroke="#000000" stroke-width="2" stroke-opacity="0.200000" points="270.33,-57.1 276.33,-55 270.33,-52.9 270.33,-57.1"/>
</g>
<!-- src/parser.ts&#45;&gt;src/commandHandler.ts -->
<g id="edge15" class="edge">
<title>src/parser.ts&#45;&gt;src/commandHandler.ts</title>
<path fill="none" stroke="#000000" stroke-width="2" stroke-opacity="0.200000" d="M144.3,-88.9C147.92,-89.43 151.73,-90 155.64,-90.57"/>
<polygon fill="#000000" fill-opacity="0.200000" stroke="#000000" stroke-width="2" stroke-opacity="0.200000" points="156.06,-93.05 162.3,-91.85 156.67,-88.9 156.06,-93.05"/>
</g>
</g>
</svg>
